<mxfile host="app.diagrams.net" modified="2023-03-17T09:03:19.924Z" agent="5.0 (Windows NT 10.0; Win64; x64) AppleWebKit/537.36 (KHTML, like Gecko) Chrome/111.0.0.0 Safari/537.36" etag="H_LpWLE_eJ4NLwiHeeQe" version="21.0.6" type="github">
  <diagram name="第 1 页" id="4c-iceqTF0tkmisphrdm">
    <mxGraphModel dx="1434" dy="764" grid="1" gridSize="10" guides="1" tooltips="1" connect="1" arrows="1" fold="1" page="1" pageScale="1" pageWidth="1169" pageHeight="1654" math="0" shadow="0">
      <root>
        <mxCell id="0" />
        <mxCell id="1" parent="0" />
        <mxCell id="PM1-wGHLotFBk7Kre_Rt-1" value="" style="ellipse;whiteSpace=wrap;html=1;aspect=fixed;fillColor=#008a00;strokeColor=#005700;fontColor=#ffffff;" vertex="1" parent="1">
          <mxGeometry x="100" y="240" width="20" height="20" as="geometry" />
        </mxCell>
        <mxCell id="PM1-wGHLotFBk7Kre_Rt-2" value="" style="ellipse;whiteSpace=wrap;html=1;aspect=fixed;fillColor=#008a00;strokeColor=#005700;fontColor=#ffffff;" vertex="1" parent="1">
          <mxGeometry x="130" y="240" width="20" height="20" as="geometry" />
        </mxCell>
        <mxCell id="PM1-wGHLotFBk7Kre_Rt-3" value="" style="ellipse;whiteSpace=wrap;html=1;aspect=fixed;fillColor=#008a00;strokeColor=#005700;fontColor=#ffffff;" vertex="1" parent="1">
          <mxGeometry x="160" y="240" width="20" height="20" as="geometry" />
        </mxCell>
        <mxCell id="PM1-wGHLotFBk7Kre_Rt-4" value="" style="ellipse;whiteSpace=wrap;html=1;aspect=fixed;fillColor=#008a00;strokeColor=#005700;fontColor=#ffffff;" vertex="1" parent="1">
          <mxGeometry x="190" y="240" width="20" height="20" as="geometry" />
        </mxCell>
        <mxCell id="PM1-wGHLotFBk7Kre_Rt-5" value="" style="ellipse;whiteSpace=wrap;html=1;aspect=fixed;fillColor=#008a00;strokeColor=#005700;fontColor=#ffffff;" vertex="1" parent="1">
          <mxGeometry x="220" y="240" width="20" height="20" as="geometry" />
        </mxCell>
        <mxCell id="PM1-wGHLotFBk7Kre_Rt-6" value="" style="ellipse;whiteSpace=wrap;html=1;aspect=fixed;fillColor=#008a00;strokeColor=#005700;fontColor=#ffffff;" vertex="1" parent="1">
          <mxGeometry x="250" y="240" width="20" height="20" as="geometry" />
        </mxCell>
        <mxCell id="PM1-wGHLotFBk7Kre_Rt-7" value="" style="ellipse;whiteSpace=wrap;html=1;aspect=fixed;fillColor=#008a00;strokeColor=#005700;fontColor=#ffffff;" vertex="1" parent="1">
          <mxGeometry x="280" y="240" width="20" height="20" as="geometry" />
        </mxCell>
        <mxCell id="PM1-wGHLotFBk7Kre_Rt-8" value="" style="ellipse;whiteSpace=wrap;html=1;aspect=fixed;fillColor=#008a00;strokeColor=#005700;fontColor=#ffffff;" vertex="1" parent="1">
          <mxGeometry x="310" y="240" width="20" height="20" as="geometry" />
        </mxCell>
        <mxCell id="PM1-wGHLotFBk7Kre_Rt-9" value="" style="ellipse;whiteSpace=wrap;html=1;aspect=fixed;fillColor=#008a00;strokeColor=#005700;fontColor=#ffffff;" vertex="1" parent="1">
          <mxGeometry x="340" y="240" width="20" height="20" as="geometry" />
        </mxCell>
        <mxCell id="PM1-wGHLotFBk7Kre_Rt-10" value="" style="ellipse;whiteSpace=wrap;html=1;aspect=fixed;fillColor=#008a00;strokeColor=#005700;fontColor=#ffffff;" vertex="1" parent="1">
          <mxGeometry x="370" y="240" width="20" height="20" as="geometry" />
        </mxCell>
        <mxCell id="PM1-wGHLotFBk7Kre_Rt-22" value="" style="rounded=0;whiteSpace=wrap;html=1;fillColor=none;strokeColor=#FF250D;strokeWidth=3;" vertex="1" parent="1">
          <mxGeometry x="95" y="225" width="150" height="50" as="geometry" />
        </mxCell>
        <mxCell id="PM1-wGHLotFBk7Kre_Rt-23" value="" style="rounded=0;whiteSpace=wrap;html=1;fillColor=none;strokeColor=#FF250D;strokeWidth=3;" vertex="1" parent="1">
          <mxGeometry x="250" y="225" width="150" height="50" as="geometry" />
        </mxCell>
        <mxCell id="PM1-wGHLotFBk7Kre_Rt-24" value="" style="endArrow=classic;html=1;rounded=0;" edge="1" parent="1">
          <mxGeometry width="50" height="50" relative="1" as="geometry">
            <mxPoint x="169.5" y="290" as="sourcePoint" />
            <mxPoint x="170" y="335" as="targetPoint" />
          </mxGeometry>
        </mxCell>
        <mxCell id="PM1-wGHLotFBk7Kre_Rt-25" value="" style="endArrow=classic;html=1;rounded=0;" edge="1" parent="1">
          <mxGeometry width="50" height="50" relative="1" as="geometry">
            <mxPoint x="319.5" y="290" as="sourcePoint" />
            <mxPoint x="320" y="335" as="targetPoint" />
          </mxGeometry>
        </mxCell>
        <mxCell id="PM1-wGHLotFBk7Kre_Rt-28" value="&lt;font color=&quot;#0066cc&quot; face=&quot;Times New Roman&quot; style=&quot;font-size: 17px;&quot;&gt;&lt;b&gt;第一筆資料&lt;/b&gt;&lt;/font&gt;" style="text;html=1;strokeColor=none;fillColor=none;align=center;verticalAlign=middle;whiteSpace=wrap;rounded=0;" vertex="1" parent="1">
          <mxGeometry x="125" y="340" width="90" height="30" as="geometry" />
        </mxCell>
        <mxCell id="PM1-wGHLotFBk7Kre_Rt-29" value="&lt;font color=&quot;#0066cc&quot; face=&quot;Times New Roman&quot; style=&quot;font-size: 17px;&quot;&gt;&lt;b&gt;第二筆資料&lt;/b&gt;&lt;/font&gt;" style="text;html=1;strokeColor=none;fillColor=none;align=center;verticalAlign=middle;whiteSpace=wrap;rounded=0;" vertex="1" parent="1">
          <mxGeometry x="275" y="340" width="90" height="30" as="geometry" />
        </mxCell>
        <mxCell id="PM1-wGHLotFBk7Kre_Rt-30" value="&lt;font size=&quot;1&quot; face=&quot;Times New Roman&quot;&gt;&lt;b style=&quot;font-size: 23px;&quot;&gt;單一視窗法&lt;/b&gt;&lt;/font&gt;" style="text;html=1;strokeColor=none;fillColor=none;align=center;verticalAlign=middle;whiteSpace=wrap;rounded=0;" vertex="1" parent="1">
          <mxGeometry x="180" y="170" width="140" height="30" as="geometry" />
        </mxCell>
        <mxCell id="PM1-wGHLotFBk7Kre_Rt-58" value="" style="ellipse;whiteSpace=wrap;html=1;aspect=fixed;fillColor=#008a00;strokeColor=#005700;fontColor=#ffffff;" vertex="1" parent="1">
          <mxGeometry x="615" y="240" width="20" height="20" as="geometry" />
        </mxCell>
        <mxCell id="PM1-wGHLotFBk7Kre_Rt-59" value="" style="ellipse;whiteSpace=wrap;html=1;aspect=fixed;fillColor=#008a00;strokeColor=#005700;fontColor=#ffffff;" vertex="1" parent="1">
          <mxGeometry x="645" y="240" width="20" height="20" as="geometry" />
        </mxCell>
        <mxCell id="PM1-wGHLotFBk7Kre_Rt-60" value="" style="ellipse;whiteSpace=wrap;html=1;aspect=fixed;fillColor=#008a00;strokeColor=#005700;fontColor=#ffffff;" vertex="1" parent="1">
          <mxGeometry x="675" y="240" width="20" height="20" as="geometry" />
        </mxCell>
        <mxCell id="PM1-wGHLotFBk7Kre_Rt-61" value="" style="ellipse;whiteSpace=wrap;html=1;aspect=fixed;fillColor=#008a00;strokeColor=#005700;fontColor=#ffffff;" vertex="1" parent="1">
          <mxGeometry x="705" y="240" width="20" height="20" as="geometry" />
        </mxCell>
        <mxCell id="PM1-wGHLotFBk7Kre_Rt-62" value="" style="ellipse;whiteSpace=wrap;html=1;aspect=fixed;fillColor=#008a00;strokeColor=#005700;fontColor=#ffffff;" vertex="1" parent="1">
          <mxGeometry x="735" y="240" width="20" height="20" as="geometry" />
        </mxCell>
        <mxCell id="PM1-wGHLotFBk7Kre_Rt-63" value="" style="ellipse;whiteSpace=wrap;html=1;aspect=fixed;fillColor=#008a00;strokeColor=#005700;fontColor=#ffffff;" vertex="1" parent="1">
          <mxGeometry x="765" y="240" width="20" height="20" as="geometry" />
        </mxCell>
        <mxCell id="PM1-wGHLotFBk7Kre_Rt-64" value="" style="ellipse;whiteSpace=wrap;html=1;aspect=fixed;fillColor=#008a00;strokeColor=#005700;fontColor=#ffffff;" vertex="1" parent="1">
          <mxGeometry x="795" y="240" width="20" height="20" as="geometry" />
        </mxCell>
        <mxCell id="PM1-wGHLotFBk7Kre_Rt-65" value="" style="ellipse;whiteSpace=wrap;html=1;aspect=fixed;fillColor=#008a00;strokeColor=#005700;fontColor=#ffffff;" vertex="1" parent="1">
          <mxGeometry x="825" y="240" width="20" height="20" as="geometry" />
        </mxCell>
        <mxCell id="PM1-wGHLotFBk7Kre_Rt-66" value="" style="ellipse;whiteSpace=wrap;html=1;aspect=fixed;fillColor=#008a00;strokeColor=#005700;fontColor=#ffffff;" vertex="1" parent="1">
          <mxGeometry x="855" y="240" width="20" height="20" as="geometry" />
        </mxCell>
        <mxCell id="PM1-wGHLotFBk7Kre_Rt-67" value="" style="ellipse;whiteSpace=wrap;html=1;aspect=fixed;fillColor=#008a00;strokeColor=#005700;fontColor=#ffffff;" vertex="1" parent="1">
          <mxGeometry x="885" y="240" width="20" height="20" as="geometry" />
        </mxCell>
        <mxCell id="PM1-wGHLotFBk7Kre_Rt-68" value="" style="rounded=0;whiteSpace=wrap;html=1;fillColor=none;strokeColor=#FF250D;strokeWidth=3;" vertex="1" parent="1">
          <mxGeometry x="610" y="225" width="150" height="50" as="geometry" />
        </mxCell>
        <mxCell id="PM1-wGHLotFBk7Kre_Rt-70" value="" style="endArrow=classic;html=1;rounded=0;" edge="1" parent="1">
          <mxGeometry width="50" height="50" relative="1" as="geometry">
            <mxPoint x="654.5" y="290" as="sourcePoint" />
            <mxPoint x="655" y="335" as="targetPoint" />
          </mxGeometry>
        </mxCell>
        <mxCell id="PM1-wGHLotFBk7Kre_Rt-71" value="" style="endArrow=classic;html=1;rounded=0;" edge="1" parent="1">
          <mxGeometry width="50" height="50" relative="1" as="geometry">
            <mxPoint x="749.5" y="290" as="sourcePoint" />
            <mxPoint x="750" y="335" as="targetPoint" />
          </mxGeometry>
        </mxCell>
        <mxCell id="PM1-wGHLotFBk7Kre_Rt-72" value="&lt;font color=&quot;#ff250d&quot; face=&quot;Times New Roman&quot; style=&quot;font-size: 17px;&quot;&gt;&lt;b style=&quot;&quot;&gt;第一筆資料&lt;/b&gt;&lt;/font&gt;" style="text;html=1;strokeColor=none;fillColor=none;align=center;verticalAlign=middle;whiteSpace=wrap;rounded=0;" vertex="1" parent="1">
          <mxGeometry x="610" y="340" width="90" height="30" as="geometry" />
        </mxCell>
        <mxCell id="PM1-wGHLotFBk7Kre_Rt-73" value="&lt;font color=&quot;#00ffff&quot; face=&quot;Times New Roman&quot; style=&quot;font-size: 17px;&quot;&gt;&lt;b style=&quot;&quot;&gt;第二筆資料&lt;/b&gt;&lt;/font&gt;" style="text;html=1;strokeColor=none;fillColor=none;align=center;verticalAlign=middle;whiteSpace=wrap;rounded=0;" vertex="1" parent="1">
          <mxGeometry x="705" y="340" width="90" height="30" as="geometry" />
        </mxCell>
        <mxCell id="PM1-wGHLotFBk7Kre_Rt-75" value="" style="rounded=0;whiteSpace=wrap;html=1;fillColor=none;strokeColor=#00FFFF;strokeWidth=3;" vertex="1" parent="1">
          <mxGeometry x="700" y="225" width="150" height="50" as="geometry" />
        </mxCell>
        <mxCell id="PM1-wGHLotFBk7Kre_Rt-74" value="&lt;font size=&quot;1&quot; face=&quot;Times New Roman&quot;&gt;&lt;b style=&quot;font-size: 23px;&quot;&gt;滑動視窗法&lt;/b&gt;&lt;/font&gt;" style="text;html=1;strokeColor=none;fillColor=none;align=center;verticalAlign=middle;whiteSpace=wrap;rounded=0;" vertex="1" parent="1">
          <mxGeometry x="695" y="170" width="140" height="30" as="geometry" />
        </mxCell>
        <mxCell id="PM1-wGHLotFBk7Kre_Rt-76" value="" style="rounded=0;whiteSpace=wrap;html=1;fillColor=none;strokeColor=#FF99FF;strokeWidth=3;" vertex="1" parent="1">
          <mxGeometry x="795" y="225" width="150" height="50" as="geometry" />
        </mxCell>
        <mxCell id="PM1-wGHLotFBk7Kre_Rt-77" value="" style="endArrow=classic;html=1;rounded=0;" edge="1" parent="1">
          <mxGeometry width="50" height="50" relative="1" as="geometry">
            <mxPoint x="859.5" y="290" as="sourcePoint" />
            <mxPoint x="860" y="335" as="targetPoint" />
          </mxGeometry>
        </mxCell>
        <mxCell id="PM1-wGHLotFBk7Kre_Rt-78" value="&lt;font color=&quot;#ff99ff&quot; face=&quot;Times New Roman&quot; style=&quot;font-size: 17px;&quot;&gt;&lt;b style=&quot;&quot;&gt;第三筆資料&lt;/b&gt;&lt;/font&gt;" style="text;html=1;strokeColor=none;fillColor=none;align=center;verticalAlign=middle;whiteSpace=wrap;rounded=0;" vertex="1" parent="1">
          <mxGeometry x="815" y="340" width="90" height="30" as="geometry" />
        </mxCell>
      </root>
    </mxGraphModel>
  </diagram>
</mxfile>
